<svg viewBox="0 0 512 512">
 <path d="m105 495.44c-20.024-4.3664-36.343-19.841-42.787-40.574-1.529-4.9192-1.694-21.203-1.9688-194.37-0.20404-128.58 0.03609-191.19 0.75115-195.84 3.4319-22.337 17.895-39.769 38.933-46.924l6.5721-2.2352 146.22-0.26942c158.6-0.29223 153.68-0.44364 165.61 5.0962 11.888 5.5209 23.041 16.7 28.138 28.202 5.2878 11.934 5.0338 1.4144 5.0338 208.47v192.5l-2.7691 7.8278c-6.3291 17.892-19.408 31.07-36.659 36.937l-6.5721 2.2352-147 0.1803c-123.63 0.15164-148.03-0.0451-153.5-1.2371zm297.67-29.939c6.323-1.8777 13.33-7.9382 16.458-14.234l2.3697-4.7704v-381l-2.3697-4.7704c-3.1276-6.296-10.135-12.357-16.458-14.234-7.5965-2.2559-285.75-2.2559-293.34 0-6.323 1.8777-13.33 7.9382-16.458 14.234l-2.3697 4.7704v381l2.3697 4.7704c3.0133 6.0659 10.13 12.356 16.039 14.176 7.0979 2.1865 286.41 2.2418 293.76 0.0581zm-271.55-44.508c-1.8597-0.43901-4.7544-2.1713-6.4327-3.8496-2.553-2.553-3.121-4.0131-3.4773-8.9391-0.50916-7.0392 1.3324-11.348 6.0899-14.249 3.1303-1.9087 5.9893-1.952 128.7-1.952s125.57 0.0434 128.7 1.952c4.7574 2.9008 6.599 7.2097 6.0899 14.249-0.35523 4.911-0.92702 6.3889-3.4466 8.9084-1.6614 1.6614-4.7811 3.429-6.9327 3.9281-4.83 1.1203-244.54 1.0743-249.29-0.0478zm-3.8201-61.957c-4.7574-2.9008-6.599-7.2097-6.0899-14.249 0.35523-4.911 0.92702-6.3889 3.4466-8.9084 1.6614-1.6614 4.7811-3.429 6.9327-3.9281 5.1634-1.1976 243.66-1.1976 248.82 0 2.1516 0.49905 5.2713 2.2667 6.9327 3.9281 2.5196 2.5196 3.0914 3.9975 3.4466 8.9084 0.50916 7.0392-1.3324 11.348-6.0899 14.249-3.1303 1.9087-5.9893 1.952-128.7 1.952s-125.57-0.0434-128.7-1.952zm30.098-74.47c-1.7071-0.7431-4.1821-2.863-5.5-4.7109-6.161-8.6383 0.12149-33.705 13.33-53.184 8.5257-12.573 25.667-28.041 38.003-34.292l4.8252-2.4451-3.0891-4.4899c-17.331-25.19-15.616-55.977 4.2911-77.025 7.2705-7.687 14.385-12.4 24.502-16.231 5.8054-2.1984 8.4079-2.5626 18.742-2.6228 13.041-0.07599 17.477 0.94958 29 6.7053 9.3478 4.669 20.253 16.203 25.268 26.725 4.7226 9.9077 6.2317 16.299 6.2317 26.389 0 12.466-4.1371 25.34-11.447 35.622l-3.2074 4.5117 7.5771 4.2605c24.167 13.589 41.796 37.247 49.134 65.939 2.6772 10.468 2.5275 14.952-0.65586 19.637-4.754 6.9961 0.66512 6.6441-101.62 6.6007-75.244-0.0319-92.855-0.2886-95.386-1.3902zm164.6-29.262c0-2.5749-9.6591-16.07-15.967-22.308-14.743-14.579-32.575-21.965-53.033-21.965-20.458 0-38.037 7.2865-52.989 21.965-6.3504 6.2341-16.011 19.694-16.011 22.308 0 0.38051 31.05 0.69183 69 0.69183s69-0.31132 69-0.69183zm-56.592-77.638c14.045-6.4301 20.957-22.439 15.986-37.028-2.2223-6.5222-10.022-14.805-16.624-17.653-7.1614-3.0894-16.379-3.0894-23.54 0-6.6017 2.8479-14.401 11.13-16.624 17.653-5.7266 16.807 4.3019 34.893 21.894 39.484 4.862 1.269 13.112 0.1973 18.908-2.4564z"/>
</svg>
